<svg width="16" height="15" viewBox="0 0 16 15" fill="none" xmlns="http://www.w3.org/2000/svg">
<g clip-path="url(#clip0_42_30)">
<path d="M15.6522 1H4.52174C4.42949 1 4.34102 1.03207 4.27579 1.08914C4.21056 1.14622 4.17391 1.22363 4.17391 1.30435V4.65217H0.347826C0.255577 4.65217 0.167106 4.68424 0.101876 4.74131C0.0366459 4.79839 0 4.8758 0 4.95652V14.6957C0 14.7764 0.0366459 14.8538 0.101876 14.9109C0.167106 14.9679 0.255577 15 0.347826 15H11.4783C11.5705 15 11.659 14.9679 11.7242 14.9109C11.7894 14.8538 11.8261 14.7764 11.8261 14.6957V11.3478H15.6522C15.7444 11.3478 15.8329 11.3158 15.8981 11.2587C15.9634 11.2016 16 11.1242 16 11.0435V1.30435C16 1.22363 15.9634 1.14622 15.8981 1.08914C15.8329 1.03207 15.7444 1 15.6522 1ZM11.1304 14.3913H0.695652V5.26087H11.1304V14.3913ZM15.3043 10.7391H11.8261V4.95652C11.8261 4.8758 11.7894 4.79839 11.7242 4.74131C11.659 4.68424 11.5705 4.65217 11.4783 4.65217H4.86957V1.6087H15.3043V10.7391Z" fill="white"/>
</g>
<defs>
<clipPath id="clip0_42_30">
<rect width="16" height="15" fill="white"/>
</clipPath>
</defs>
</svg>
